<svg width="37" height="36" viewBox="0 0 37 36" fill="none" xmlns="http://www.w3.org/2000/svg">
<path style="mix-blend-mode:screen" d="M13.875 9.75C13.875 9.49112 13.6593 9.28125 13.3932 9.28125C11.7968 9.28125 10.5026 8.02206 10.5026 6.46875C10.5026 6.20987 10.2869 6 10.0208 6C9.75475 6 9.53905 6.20987 9.53905 6.46875C9.53905 8.02206 8.24488 9.28125 6.64843 9.28125C6.38235 9.28125 6.16666 9.49112 6.16666 9.75C6.16666 10.0089 6.38235 10.2188 6.64843 10.2188C8.24488 10.2188 9.53905 11.4779 9.53905 13.0312C9.53905 13.2901 9.75475 13.5 10.0208 13.5C10.2869 13.5 10.5026 13.2901 10.5026 13.0312C10.5026 11.4779 11.7968 10.2188 13.3932 10.2188C13.6593 10.2188 13.875 10.0089 13.875 9.75Z" fill="url(#paint0_linear_34_9590)"/>
<path d="M13.875 9.75C13.875 9.49112 13.6593 9.28125 13.3932 9.28125C11.7968 9.28125 10.5026 8.02206 10.5026 6.46875C10.5026 6.20987 10.2869 6 10.0208 6C9.75475 6 9.53905 6.20987 9.53905 6.46875C9.53905 8.02206 8.24488 9.28125 6.64843 9.28125C6.38235 9.28125 6.16666 9.49112 6.16666 9.75C6.16666 10.0089 6.38235 10.2188 6.64843 10.2188C8.24488 10.2188 9.53905 11.4779 9.53905 13.0312C9.53905 13.2901 9.75475 13.5 10.0208 13.5C10.2869 13.5 10.5026 13.2901 10.5026 13.0312C10.5026 11.4779 11.7968 10.2188 13.3932 10.2188C13.6593 10.2188 13.875 10.0089 13.875 9.75Z" fill="white" fill-opacity="0.5"/>
<path style="mix-blend-mode:screen" d="M25.4375 9C25.4375 8.58579 25.0923 8.25 24.6667 8.25C24.241 8.25 23.8958 8.58579 23.8958 9C23.8958 12.7273 20.7897 15.75 16.9583 15.75C16.5327 15.75 16.1875 16.0858 16.1875 16.5C16.1875 16.9142 16.5327 17.25 16.9583 17.25C20.7898 17.25 23.8958 20.2713 23.8958 24C23.8958 24.4142 24.241 24.75 24.6667 24.75C25.0923 24.75 25.4375 24.4142 25.4375 24C25.4375 20.2712 28.5426 17.25 32.375 17.25C32.8007 17.25 33.1458 16.9142 33.1458 16.5C33.1458 16.0858 32.8007 15.75 32.375 15.75C28.5427 15.75 25.4375 12.7274 25.4375 9Z" fill="url(#paint1_linear_34_9590)"/>
<path d="M25.4375 9C25.4375 8.58579 25.0923 8.25 24.6667 8.25C24.241 8.25 23.8958 8.58579 23.8958 9C23.8958 12.7273 20.7897 15.75 16.9583 15.75C16.5327 15.75 16.1875 16.0858 16.1875 16.5C16.1875 16.9142 16.5327 17.25 16.9583 17.25C20.7898 17.25 23.8958 20.2713 23.8958 24C23.8958 24.4142 24.241 24.75 24.6667 24.75C25.0923 24.75 25.4375 24.4142 25.4375 24C25.4375 20.2712 28.5426 17.25 32.375 17.25C32.8007 17.25 33.1458 16.9142 33.1458 16.5C33.1458 16.0858 32.8007 15.75 32.375 15.75C28.5427 15.75 25.4375 12.7274 25.4375 9Z" fill="white" fill-opacity="0.5"/>
<path style="mix-blend-mode:screen" d="M11.5625 18.75C11.5625 18.3359 11.2174 18 10.7917 18C10.366 18 10.0208 18.3359 10.0208 18.75C10.0208 21.2354 7.95016 23.25 5.39583 23.25C4.97012 23.25 4.625 23.5858 4.625 24C4.625 24.4142 4.97012 24.75 5.39583 24.75C7.95016 24.75 10.0208 26.7647 10.0208 29.25C10.0208 29.6642 10.366 30 10.7917 30C11.2174 30 11.5625 29.6642 11.5625 29.25C11.5625 26.7647 13.6332 24.75 16.1875 24.75C16.6132 24.75 16.9583 24.4142 16.9583 24C16.9583 23.5858 16.6132 23.25 16.1875 23.25C13.6332 23.25 11.5625 21.2354 11.5625 18.75Z" fill="url(#paint2_linear_34_9590)"/>
<path d="M11.5625 18.75C11.5625 18.3359 11.2174 18 10.7917 18C10.366 18 10.0208 18.3359 10.0208 18.75C10.0208 21.2354 7.95016 23.25 5.39583 23.25C4.97012 23.25 4.625 23.5858 4.625 24C4.625 24.4142 4.97012 24.75 5.39583 24.75C7.95016 24.75 10.0208 26.7647 10.0208 29.25C10.0208 29.6642 10.366 30 10.7917 30C11.2174 30 11.5625 29.6642 11.5625 29.25C11.5625 26.7647 13.6332 24.75 16.1875 24.75C16.6132 24.75 16.9583 24.4142 16.9583 24C16.9583 23.5858 16.6132 23.25 16.1875 23.25C13.6332 23.25 11.5625 21.2354 11.5625 18.75Z" fill="white" fill-opacity="0.5"/>
<defs>
<linearGradient id="paint0_linear_34_9590" x1="4.62499" y1="30" x2="33.1458" y2="30.004" gradientUnits="userSpaceOnUse">
<stop stop-color="#E59CFF"/>
<stop offset="0.5" stop-color="#BA9CFF"/>
<stop offset="1" stop-color="#9CB2FF"/>
</linearGradient>
<linearGradient id="paint1_linear_34_9590" x1="4.625" y1="30" x2="33.1458" y2="30.004" gradientUnits="userSpaceOnUse">
<stop stop-color="#E59CFF"/>
<stop offset="0.5" stop-color="#BA9CFF"/>
<stop offset="1" stop-color="#9CB2FF"/>
</linearGradient>
<linearGradient id="paint2_linear_34_9590" x1="4.625" y1="30" x2="33.1458" y2="30.004" gradientUnits="userSpaceOnUse">
<stop stop-color="#E59CFF"/>
<stop offset="0.5" stop-color="#BA9CFF"/>
<stop offset="1" stop-color="#9CB2FF"/>
</linearGradient>
</defs>
</svg>
